<mxfile host="app.diagrams.net" agent="Mozilla/5.0 (Windows NT 10.0; Win64; x64) AppleWebKit/537.36 (KHTML, like Gecko) Chrome/136.0.0.0 Safari/537.36" version="26.2.4">
  <diagram name="Page-1" id="rL6aWBrWC0KxIFkwJwpM">
    <mxGraphModel dx="1758" dy="570" grid="1" gridSize="10" guides="1" tooltips="1" connect="1" arrows="1" fold="1" page="1" pageScale="1" pageWidth="850" pageHeight="1100" math="0" shadow="0">
      <root>
        <mxCell id="0" />
        <mxCell id="1" parent="0" />
        <mxCell id="hqrAx-IuhgBJA9bFdDGv-1" value="Inicio" style="ellipse;whiteSpace=wrap;html=1;" vertex="1" parent="1">
          <mxGeometry x="-210" y="50" width="120" height="80" as="geometry" />
        </mxCell>
        <mxCell id="hqrAx-IuhgBJA9bFdDGv-2" value="Ingrese su nota:" style="shape=document;whiteSpace=wrap;html=1;boundedLbl=1;" vertex="1" parent="1">
          <mxGeometry x="-210" y="170" width="120" height="80" as="geometry" />
        </mxCell>
        <mxCell id="hqrAx-IuhgBJA9bFdDGv-22" style="edgeStyle=orthogonalEdgeStyle;rounded=0;orthogonalLoop=1;jettySize=auto;html=1;entryX=0;entryY=0.5;entryDx=0;entryDy=0;" edge="1" parent="1" source="hqrAx-IuhgBJA9bFdDGv-3" target="hqrAx-IuhgBJA9bFdDGv-4">
          <mxGeometry relative="1" as="geometry" />
        </mxCell>
        <mxCell id="hqrAx-IuhgBJA9bFdDGv-3" value="Leer&lt;div&gt;Nota&lt;/div&gt;" style="rounded=0;whiteSpace=wrap;html=1;" vertex="1" parent="1">
          <mxGeometry x="-210" y="280" width="120" height="60" as="geometry" />
        </mxCell>
        <mxCell id="hqrAx-IuhgBJA9bFdDGv-23" style="edgeStyle=orthogonalEdgeStyle;rounded=0;orthogonalLoop=1;jettySize=auto;html=1;exitX=0.5;exitY=1;exitDx=0;exitDy=0;entryX=0.5;entryY=0;entryDx=0;entryDy=0;" edge="1" parent="1" source="hqrAx-IuhgBJA9bFdDGv-4" target="hqrAx-IuhgBJA9bFdDGv-8">
          <mxGeometry relative="1" as="geometry" />
        </mxCell>
        <mxCell id="hqrAx-IuhgBJA9bFdDGv-4" value="!cin" style="rhombus;whiteSpace=wrap;html=1;" vertex="1" parent="1">
          <mxGeometry x="-40" y="80" width="120" height="100" as="geometry" />
        </mxCell>
        <mxCell id="hqrAx-IuhgBJA9bFdDGv-26" style="edgeStyle=orthogonalEdgeStyle;rounded=0;orthogonalLoop=1;jettySize=auto;html=1;exitX=1;exitY=0.5;exitDx=0;exitDy=0;entryX=0;entryY=0.5;entryDx=0;entryDy=0;" edge="1" parent="1" source="hqrAx-IuhgBJA9bFdDGv-6" target="hqrAx-IuhgBJA9bFdDGv-12">
          <mxGeometry relative="1" as="geometry" />
        </mxCell>
        <mxCell id="hqrAx-IuhgBJA9bFdDGv-6" value="Grado = &#39;A&#39;" style="rounded=0;whiteSpace=wrap;html=1;" vertex="1" parent="1">
          <mxGeometry x="100" y="310" width="120" height="60" as="geometry" />
        </mxCell>
        <mxCell id="hqrAx-IuhgBJA9bFdDGv-25" style="edgeStyle=orthogonalEdgeStyle;rounded=0;orthogonalLoop=1;jettySize=auto;html=1;exitX=0.5;exitY=1;exitDx=0;exitDy=0;entryX=0.5;entryY=0;entryDx=0;entryDy=0;" edge="1" parent="1" source="hqrAx-IuhgBJA9bFdDGv-7" target="hqrAx-IuhgBJA9bFdDGv-6">
          <mxGeometry relative="1" as="geometry" />
        </mxCell>
        <mxCell id="hqrAx-IuhgBJA9bFdDGv-7" value="&lt;br&gt;&lt;div&gt;&lt;div&gt;nota&amp;gt;=90&lt;/div&gt;&lt;div&gt;&amp;amp;&amp;amp;&lt;/div&gt;&lt;div&gt;nota&amp;lt;=100&lt;/div&gt;&lt;/div&gt;" style="rhombus;whiteSpace=wrap;html=1;" vertex="1" parent="1">
          <mxGeometry x="120" y="190" width="80" height="80" as="geometry" />
        </mxCell>
        <mxCell id="hqrAx-IuhgBJA9bFdDGv-24" style="edgeStyle=orthogonalEdgeStyle;rounded=0;orthogonalLoop=1;jettySize=auto;html=1;entryX=0;entryY=0.5;entryDx=0;entryDy=0;" edge="1" parent="1" source="hqrAx-IuhgBJA9bFdDGv-8" target="hqrAx-IuhgBJA9bFdDGv-7">
          <mxGeometry relative="1" as="geometry" />
        </mxCell>
        <mxCell id="hqrAx-IuhgBJA9bFdDGv-8" value="Error" style="rounded=0;whiteSpace=wrap;html=1;" vertex="1" parent="1">
          <mxGeometry x="-40" y="200" width="120" height="60" as="geometry" />
        </mxCell>
        <mxCell id="hqrAx-IuhgBJA9bFdDGv-29" style="edgeStyle=orthogonalEdgeStyle;rounded=0;orthogonalLoop=1;jettySize=auto;html=1;entryX=0.5;entryY=0;entryDx=0;entryDy=0;" edge="1" parent="1" source="hqrAx-IuhgBJA9bFdDGv-9" target="hqrAx-IuhgBJA9bFdDGv-13">
          <mxGeometry relative="1" as="geometry" />
        </mxCell>
        <mxCell id="hqrAx-IuhgBJA9bFdDGv-9" value="nota &amp;lt; 85&lt;div&gt;&amp;amp;&amp;amp;&lt;/div&gt;&lt;div&gt;nota &amp;gt;= 80&lt;/div&gt;" style="rhombus;whiteSpace=wrap;html=1;" vertex="1" parent="1">
          <mxGeometry x="385" y="390" width="80" height="80" as="geometry" />
        </mxCell>
        <mxCell id="hqrAx-IuhgBJA9bFdDGv-11" value="Grado = &#39;B&#39;" style="rounded=0;whiteSpace=wrap;html=1;" vertex="1" parent="1">
          <mxGeometry x="240" y="420" width="120" height="60" as="geometry" />
        </mxCell>
        <mxCell id="hqrAx-IuhgBJA9bFdDGv-12" value="nota &amp;lt; 90&lt;div&gt;&amp;amp;&amp;amp;&lt;/div&gt;&lt;div&gt;nota &amp;gt;= 85&lt;/div&gt;" style="rhombus;whiteSpace=wrap;html=1;" vertex="1" parent="1">
          <mxGeometry x="250" y="300" width="80" height="80" as="geometry" />
        </mxCell>
        <mxCell id="hqrAx-IuhgBJA9bFdDGv-13" value="Grado = &#39;C&#39;" style="rounded=0;whiteSpace=wrap;html=1;" vertex="1" parent="1">
          <mxGeometry x="365" y="510" width="120" height="60" as="geometry" />
        </mxCell>
        <mxCell id="hqrAx-IuhgBJA9bFdDGv-30" value="" style="edgeStyle=orthogonalEdgeStyle;rounded=0;orthogonalLoop=1;jettySize=auto;html=1;" edge="1" parent="1" source="hqrAx-IuhgBJA9bFdDGv-16" target="hqrAx-IuhgBJA9bFdDGv-13">
          <mxGeometry relative="1" as="geometry" />
        </mxCell>
        <mxCell id="hqrAx-IuhgBJA9bFdDGv-31" style="edgeStyle=orthogonalEdgeStyle;rounded=0;orthogonalLoop=1;jettySize=auto;html=1;exitX=0.5;exitY=1;exitDx=0;exitDy=0;entryX=0.5;entryY=0;entryDx=0;entryDy=0;" edge="1" parent="1" source="hqrAx-IuhgBJA9bFdDGv-16" target="hqrAx-IuhgBJA9bFdDGv-21">
          <mxGeometry relative="1" as="geometry" />
        </mxCell>
        <mxCell id="hqrAx-IuhgBJA9bFdDGv-16" value="nota &amp;lt; 80&lt;div&gt;&amp;amp;&amp;amp;&lt;/div&gt;&lt;div&gt;nota &amp;gt;= 75&lt;/div&gt;" style="rhombus;whiteSpace=wrap;html=1;" vertex="1" parent="1">
          <mxGeometry x="540" y="500" width="80" height="80" as="geometry" />
        </mxCell>
        <mxCell id="hqrAx-IuhgBJA9bFdDGv-64" style="edgeStyle=orthogonalEdgeStyle;rounded=0;orthogonalLoop=1;jettySize=auto;html=1;entryX=0;entryY=0.5;entryDx=0;entryDy=0;" edge="1" parent="1" source="hqrAx-IuhgBJA9bFdDGv-18" target="hqrAx-IuhgBJA9bFdDGv-62">
          <mxGeometry relative="1" as="geometry" />
        </mxCell>
        <mxCell id="hqrAx-IuhgBJA9bFdDGv-18" value="Grado = &#39;E&#39;" style="rounded=0;whiteSpace=wrap;html=1;" vertex="1" parent="1">
          <mxGeometry x="650" y="720" width="120" height="60" as="geometry" />
        </mxCell>
        <mxCell id="hqrAx-IuhgBJA9bFdDGv-32" style="edgeStyle=orthogonalEdgeStyle;rounded=0;orthogonalLoop=1;jettySize=auto;html=1;exitX=0;exitY=0.5;exitDx=0;exitDy=0;entryX=1;entryY=0.5;entryDx=0;entryDy=0;" edge="1" parent="1" source="hqrAx-IuhgBJA9bFdDGv-20" target="hqrAx-IuhgBJA9bFdDGv-21">
          <mxGeometry relative="1" as="geometry" />
        </mxCell>
        <mxCell id="hqrAx-IuhgBJA9bFdDGv-33" style="edgeStyle=orthogonalEdgeStyle;rounded=0;orthogonalLoop=1;jettySize=auto;html=1;exitX=0.5;exitY=1;exitDx=0;exitDy=0;entryX=0.5;entryY=0;entryDx=0;entryDy=0;" edge="1" parent="1" source="hqrAx-IuhgBJA9bFdDGv-20" target="hqrAx-IuhgBJA9bFdDGv-18">
          <mxGeometry relative="1" as="geometry" />
        </mxCell>
        <mxCell id="hqrAx-IuhgBJA9bFdDGv-20" value="nota &amp;lt; 74&lt;div&gt;&lt;div&gt;&amp;amp;&amp;amp;&lt;/div&gt;&lt;div&gt;nota &amp;gt;= 69&lt;/div&gt;&lt;/div&gt;" style="rhombus;whiteSpace=wrap;html=1;" vertex="1" parent="1">
          <mxGeometry x="670" y="600" width="80" height="80" as="geometry" />
        </mxCell>
        <mxCell id="hqrAx-IuhgBJA9bFdDGv-21" value="Grado = &#39;D&#39;" style="rounded=0;whiteSpace=wrap;html=1;" vertex="1" parent="1">
          <mxGeometry x="520" y="620" width="120" height="60" as="geometry" />
        </mxCell>
        <mxCell id="hqrAx-IuhgBJA9bFdDGv-27" style="edgeStyle=orthogonalEdgeStyle;rounded=0;orthogonalLoop=1;jettySize=auto;html=1;exitX=0.5;exitY=1;exitDx=0;exitDy=0;entryX=0.417;entryY=-0.017;entryDx=0;entryDy=0;entryPerimeter=0;" edge="1" parent="1" source="hqrAx-IuhgBJA9bFdDGv-12" target="hqrAx-IuhgBJA9bFdDGv-11">
          <mxGeometry relative="1" as="geometry" />
        </mxCell>
        <mxCell id="hqrAx-IuhgBJA9bFdDGv-28" style="edgeStyle=orthogonalEdgeStyle;rounded=0;orthogonalLoop=1;jettySize=auto;html=1;exitX=1;exitY=0.5;exitDx=0;exitDy=0;entryX=0.036;entryY=0.604;entryDx=0;entryDy=0;entryPerimeter=0;" edge="1" parent="1" source="hqrAx-IuhgBJA9bFdDGv-11" target="hqrAx-IuhgBJA9bFdDGv-9">
          <mxGeometry relative="1" as="geometry" />
        </mxCell>
        <mxCell id="hqrAx-IuhgBJA9bFdDGv-34" value="Grado" style="rhombus;whiteSpace=wrap;html=1;" vertex="1" parent="1">
          <mxGeometry x="-170" y="820" width="100" height="110" as="geometry" />
        </mxCell>
        <mxCell id="hqrAx-IuhgBJA9bFdDGv-117" style="edgeStyle=orthogonalEdgeStyle;rounded=0;orthogonalLoop=1;jettySize=auto;html=1;exitX=0.5;exitY=1;exitDx=0;exitDy=0;entryX=0.5;entryY=0;entryDx=0;entryDy=0;" edge="1" parent="1" source="hqrAx-IuhgBJA9bFdDGv-37" target="hqrAx-IuhgBJA9bFdDGv-45">
          <mxGeometry relative="1" as="geometry" />
        </mxCell>
        <mxCell id="hqrAx-IuhgBJA9bFdDGv-37" value="Case &#39;B&lt;span style=&quot;color: rgba(0, 0, 0, 0); font-family: monospace; font-size: 0px; text-align: start; text-wrap-mode: nowrap;&quot;&gt;%3CmxGraphModel%3E%3Croot%3E%3CmxCell%20id%3D%220%22%2F%3E%3CmxCell%20id%3D%221%22%20parent%3D%220%22%2F%3E%3CmxCell%20id%3D%222%22%20value%3D%22Case%201%3A%20&#39;A&#39;%22%20style%3D%22rounded%3D0%3BwhiteSpace%3Dwrap%3Bhtml%3D1%3B%22%20vertex%3D%221%22%20parent%3D%221%22%3E%3CmxGeometry%20x%3D%22-180%22%20y%3D%22960%22%20width%3D%22120%22%20height%3D%2260%22%20as%3D%22geometry%22%2F%3E%3C%2FmxCell%3E%3C%2Froot%3E%3C%2FmxGraphModel%3E&lt;/span&gt;&#39;" style="rounded=0;whiteSpace=wrap;html=1;" vertex="1" parent="1">
          <mxGeometry y="970" width="120" height="60" as="geometry" />
        </mxCell>
        <mxCell id="hqrAx-IuhgBJA9bFdDGv-116" style="edgeStyle=orthogonalEdgeStyle;rounded=0;orthogonalLoop=1;jettySize=auto;html=1;exitX=0.5;exitY=1;exitDx=0;exitDy=0;entryX=0.5;entryY=0;entryDx=0;entryDy=0;" edge="1" parent="1" source="hqrAx-IuhgBJA9bFdDGv-39" target="hqrAx-IuhgBJA9bFdDGv-44">
          <mxGeometry relative="1" as="geometry" />
        </mxCell>
        <mxCell id="hqrAx-IuhgBJA9bFdDGv-39" value="Case &#39;A&#39;" style="rounded=0;whiteSpace=wrap;html=1;" vertex="1" parent="1">
          <mxGeometry x="-170" y="970" width="120" height="60" as="geometry" />
        </mxCell>
        <mxCell id="hqrAx-IuhgBJA9bFdDGv-118" style="edgeStyle=orthogonalEdgeStyle;rounded=0;orthogonalLoop=1;jettySize=auto;html=1;exitX=0.5;exitY=1;exitDx=0;exitDy=0;" edge="1" parent="1" source="hqrAx-IuhgBJA9bFdDGv-40" target="hqrAx-IuhgBJA9bFdDGv-46">
          <mxGeometry relative="1" as="geometry" />
        </mxCell>
        <mxCell id="hqrAx-IuhgBJA9bFdDGv-40" value="Case &#39;C&lt;span style=&quot;color: rgba(0, 0, 0, 0); font-family: monospace; font-size: 0px; text-align: start; text-wrap-mode: nowrap;&quot;&gt;%3CmxGraphModel%3E%3Croot%3E%3CmxCell%20id%3D%220%22%2F%3E%3CmxCell%20id%3D%221%22%20parent%3D%220%22%2F%3E%3CmxCell%20id%3D%222%22%20value%3D%22Case%201%3A%20&#39;A&#39;%22%20style%3D%22rounded%3D0%3BwhiteSpace%3Dwrap%3Bhtml%3D1%3B%22%20vertex%3D%221%22%20parent%3D%221%22%3E%3CmxGeometry%20x%3D%22-180%22%20y%3D%22960%22%20width%3D%22120%22%20height%3D%2260%22%20as%3D%22geometry%22%2F%3E%3C%2FmxCell%3E%3C%2Froot%3E%3C%2FmxGraphModel%3E&lt;/span&gt;&#39;" style="rounded=0;whiteSpace=wrap;html=1;" vertex="1" parent="1">
          <mxGeometry x="170" y="970" width="120" height="60" as="geometry" />
        </mxCell>
        <mxCell id="hqrAx-IuhgBJA9bFdDGv-119" style="edgeStyle=orthogonalEdgeStyle;rounded=0;orthogonalLoop=1;jettySize=auto;html=1;exitX=0.5;exitY=1;exitDx=0;exitDy=0;entryX=0.5;entryY=0;entryDx=0;entryDy=0;" edge="1" parent="1" source="hqrAx-IuhgBJA9bFdDGv-41" target="hqrAx-IuhgBJA9bFdDGv-47">
          <mxGeometry relative="1" as="geometry" />
        </mxCell>
        <mxCell id="hqrAx-IuhgBJA9bFdDGv-41" value="Case &#39;D&#39;" style="rounded=0;whiteSpace=wrap;html=1;" vertex="1" parent="1">
          <mxGeometry x="340" y="970" width="120" height="60" as="geometry" />
        </mxCell>
        <mxCell id="hqrAx-IuhgBJA9bFdDGv-120" style="edgeStyle=orthogonalEdgeStyle;rounded=0;orthogonalLoop=1;jettySize=auto;html=1;exitX=0.5;exitY=1;exitDx=0;exitDy=0;entryX=0.5;entryY=0;entryDx=0;entryDy=0;" edge="1" parent="1" source="hqrAx-IuhgBJA9bFdDGv-42" target="hqrAx-IuhgBJA9bFdDGv-48">
          <mxGeometry relative="1" as="geometry" />
        </mxCell>
        <mxCell id="hqrAx-IuhgBJA9bFdDGv-42" value="Case &#39;E&#39;" style="rounded=0;whiteSpace=wrap;html=1;" vertex="1" parent="1">
          <mxGeometry x="490" y="970" width="120" height="60" as="geometry" />
        </mxCell>
        <mxCell id="hqrAx-IuhgBJA9bFdDGv-43" value="Case &#39;F&#39;" style="rounded=0;whiteSpace=wrap;html=1;" vertex="1" parent="1">
          <mxGeometry x="660" y="970" width="120" height="60" as="geometry" />
        </mxCell>
        <mxCell id="hqrAx-IuhgBJA9bFdDGv-44" value="Su grado es A&lt;span style=&quot;color: rgba(0, 0, 0, 0); font-family: monospace; font-size: 0px; text-align: start; text-wrap-mode: nowrap;&quot;&gt;%3CmxGraphModel%3E%3Croot%3E%3CmxCell%20id%3D%220%22%2F%3E%3CmxCell%20id%3D%221%22%20parent%3D%220%22%2F%3E%3CmxCell%20id%3D%222%22%20value%3D%22Case%204%3A%20&#39;D&#39;%22%20style%3D%22rounded%3D0%3BwhiteSpace%3Dwrap%3Bhtml%3D1%3B%22%20vertex%3D%221%22%20parent%3D%221%22%3E%3CmxGeometry%20x%3D%22340%22%20y%3D%22970%22%20width%3D%22120%22%20height%3D%2260%22%20as%3D%22geometry%22%2F%3E%3C%2FmxCell%3E%3C%2Froot%3E%3C%2FmxGraphModel%3E&lt;/span&gt;" style="shape=document;whiteSpace=wrap;html=1;boundedLbl=1;" vertex="1" parent="1">
          <mxGeometry x="-170" y="1080" width="120" height="80" as="geometry" />
        </mxCell>
        <mxCell id="hqrAx-IuhgBJA9bFdDGv-45" value="Su grado es B&lt;span style=&quot;color: rgba(0, 0, 0, 0); font-family: monospace; font-size: 0px; text-align: start; text-wrap-mode: nowrap;&quot;&gt;%3CmxGraphModel%3E%3Croot%3E%3CmxCell%20id%3D%220%22%2F%3E%3CmxCell%20id%3D%221%22%20parent%3D%220%22%2F%3E%3CmxCell%20id%3D%222%22%20value%3D%22Case%204%3A%20&#39;D&#39;%22%20style%3D%22rounded%3D0%3BwhiteSpace%3Dwrap%3Bhtml%3D1%3B%22%20vertex%3D%221%22%20parent%3D%221%22%3E%3CmxGeometry%20x%3D%22340%22%20y%3D%22970%22%20width%3D%22120%22%20height%3D%2260%22%20as%3D%22geometry%22%2F%3E%3C%2FmxCell%3E%3C%2Froot%3E%3C%2FmxGraphModel%3E&lt;/span&gt;" style="shape=document;whiteSpace=wrap;html=1;boundedLbl=1;" vertex="1" parent="1">
          <mxGeometry y="1080" width="120" height="80" as="geometry" />
        </mxCell>
        <mxCell id="hqrAx-IuhgBJA9bFdDGv-46" value="Su grado es C&lt;span style=&quot;color: rgba(0, 0, 0, 0); font-family: monospace; font-size: 0px; text-align: start; text-wrap-mode: nowrap;&quot;&gt;%3CmxGraphModel%3E%3Croot%3E%3CmxCell%20id%3D%220%22%2F%3E%3CmxCell%20id%3D%221%22%20parent%3D%220%22%2F%3E%3CmxCell%20id%3D%222%22%20value%3D%22Case%204%3A%20&#39;D&#39;%22%20style%3D%22rounded%3D0%3BwhiteSpace%3Dwrap%3Bhtml%3D1%3B%22%20vertex%3D%221%22%20parent%3D%221%22%3E%3CmxGeometry%20x%3D%22340%22%20y%3D%22970%22%20width%3D%22120%22%20height%3D%2260%22%20as%3D%22geometry%22%2F%3E%3C%2FmxCell%3E%3C%2Froot%3E%3C%2FmxGraphModel%3E&lt;/span&gt;" style="shape=document;whiteSpace=wrap;html=1;boundedLbl=1;" vertex="1" parent="1">
          <mxGeometry x="170" y="1080" width="120" height="80" as="geometry" />
        </mxCell>
        <mxCell id="hqrAx-IuhgBJA9bFdDGv-47" value="Su grado es D&lt;span style=&quot;color: rgba(0, 0, 0, 0); font-family: monospace; font-size: 0px; text-align: start; text-wrap-mode: nowrap;&quot;&gt;%3CmxGraphModel%3E%3Croot%3E%3CmxCell%20id%3D%220%22%2F%3E%3CmxCell%20id%3D%221%22%20parent%3D%220%22%2F%3E%3CmxCell%20id%3D%222%22%20value%3D%22Case%204%3A%20&#39;D&#39;%22%20style%3D%22rounded%3D0%3BwhiteSpace%3Dwrap%3Bhtml%3D1%3B%22%20vertex%3D%221%22%20parent%3D%221%22%3E%3CmxGeometry%20x%3D%22340%22%20y%3D%22970%22%20width%3D%22120%22%20height%3D%2260%22%20as%3D%22geometry%22%2F%3E%3C%2FmxCell%3E%3C%2Froot%3E%3C%2FmxGraphModel%3E&lt;/span&gt;" style="shape=document;whiteSpace=wrap;html=1;boundedLbl=1;" vertex="1" parent="1">
          <mxGeometry x="340" y="1080" width="120" height="80" as="geometry" />
        </mxCell>
        <mxCell id="hqrAx-IuhgBJA9bFdDGv-48" value="Su grado es E&lt;span style=&quot;color: rgba(0, 0, 0, 0); font-family: monospace; font-size: 0px; text-align: start; text-wrap-mode: nowrap;&quot;&gt;%3CmxGraphModel%3E%3Croot%3E%3CmxCell%20id%3D%220%22%2F%3E%3CmxCell%20id%3D%221%22%20parent%3D%220%22%2F%3E%3CmxCell%20id%3D%222%22%20value%3D%22Case%204%3A%20&#39;D&#39;%22%20style%3D%22rounded%3D0%3BwhiteSpace%3Dwrap%3Bhtml%3D1%3B%22%20vertex%3D%221%22%20parent%3D%221%22%3E%3CmxGeometry%20x%3D%22340%22%20y%3D%22970%22%20width%3D%22120%22%20height%3D%2260%22%20as%3D%22geometry%22%2F%3E%3C%2FmxCell%3E%3C%2Froot%3E%3C%2FmxGraphModel%3&lt;/span&gt;" style="shape=document;whiteSpace=wrap;html=1;boundedLbl=1;" vertex="1" parent="1">
          <mxGeometry x="490" y="1080" width="120" height="80" as="geometry" />
        </mxCell>
        <mxCell id="hqrAx-IuhgBJA9bFdDGv-49" value="Su grado es F&lt;span style=&quot;color: rgba(0, 0, 0, 0); font-family: monospace; font-size: 0px; text-align: start; text-wrap-mode: nowrap;&quot;&gt;%3CmxGraphModel%3E%3Croot%3E%3CmxCell%20id%3D%220%22%2F%3E%3CmxCell%20id%3D%221%22%20parent%3D%220%22%2F%3E%3CmxCell%20id%3D%222%22%20value%3D%22Case%204%3A%20&#39;D&#39;%22%20style%3D%22rounded%3D0%3BwhiteSpace%3Dwrap%3Bhtml%3D1%3B%22%20vertex%3D%221%22%20parent%3D%221%22%3E%3CmxGeometry%20x%3D%22340%22%20y%3D%22970%22%20width%3D%22120%22%20height%3D%2260%22%20as%3D%22geometry%22%2F%3E%3C%2FmxCell%3E%3C%2Froot%3E%3C%2FmxGraphModel%3E&lt;/span&gt;" style="shape=document;whiteSpace=wrap;html=1;boundedLbl=1;" vertex="1" parent="1">
          <mxGeometry x="650" y="1080" width="120" height="80" as="geometry" />
        </mxCell>
        <mxCell id="hqrAx-IuhgBJA9bFdDGv-65" style="edgeStyle=orthogonalEdgeStyle;rounded=0;orthogonalLoop=1;jettySize=auto;html=1;exitX=0.5;exitY=1;exitDx=0;exitDy=0;entryX=0.5;entryY=0;entryDx=0;entryDy=0;" edge="1" parent="1" source="hqrAx-IuhgBJA9bFdDGv-62" target="hqrAx-IuhgBJA9bFdDGv-63">
          <mxGeometry relative="1" as="geometry" />
        </mxCell>
        <mxCell id="hqrAx-IuhgBJA9bFdDGv-62" value="nota &amp;lt; 69" style="rhombus;whiteSpace=wrap;html=1;" vertex="1" parent="1">
          <mxGeometry x="820" y="710" width="80" height="80" as="geometry" />
        </mxCell>
        <mxCell id="hqrAx-IuhgBJA9bFdDGv-77" style="edgeStyle=orthogonalEdgeStyle;rounded=0;orthogonalLoop=1;jettySize=auto;html=1;exitX=1;exitY=0.25;exitDx=0;exitDy=0;entryX=0;entryY=0.5;entryDx=0;entryDy=0;" edge="1" parent="1" source="hqrAx-IuhgBJA9bFdDGv-63" target="hqrAx-IuhgBJA9bFdDGv-66">
          <mxGeometry relative="1" as="geometry" />
        </mxCell>
        <mxCell id="hqrAx-IuhgBJA9bFdDGv-63" value="Grado = &#39;F&#39;" style="rounded=0;whiteSpace=wrap;html=1;" vertex="1" parent="1">
          <mxGeometry x="800" y="820" width="120" height="60" as="geometry" />
        </mxCell>
        <mxCell id="hqrAx-IuhgBJA9bFdDGv-78" style="edgeStyle=orthogonalEdgeStyle;rounded=0;orthogonalLoop=1;jettySize=auto;html=1;exitX=0.5;exitY=1;exitDx=0;exitDy=0;entryX=0.5;entryY=0;entryDx=0;entryDy=0;" edge="1" parent="1" source="hqrAx-IuhgBJA9bFdDGv-66" target="hqrAx-IuhgBJA9bFdDGv-67">
          <mxGeometry relative="1" as="geometry" />
        </mxCell>
        <mxCell id="hqrAx-IuhgBJA9bFdDGv-66" value="nota &amp;lt;0&lt;div&gt;&amp;amp;&amp;amp;&amp;nbsp;&lt;/div&gt;&lt;div&gt;nota &amp;gt;100&lt;/div&gt;" style="rhombus;whiteSpace=wrap;html=1;" vertex="1" parent="1">
          <mxGeometry x="970" y="800" width="80" height="80" as="geometry" />
        </mxCell>
        <mxCell id="hqrAx-IuhgBJA9bFdDGv-71" style="edgeStyle=orthogonalEdgeStyle;rounded=0;orthogonalLoop=1;jettySize=auto;html=1;" edge="1" parent="1" source="hqrAx-IuhgBJA9bFdDGv-67" target="hqrAx-IuhgBJA9bFdDGv-68">
          <mxGeometry relative="1" as="geometry" />
        </mxCell>
        <mxCell id="hqrAx-IuhgBJA9bFdDGv-67" value="Error" style="rounded=0;whiteSpace=wrap;html=1;" vertex="1" parent="1">
          <mxGeometry x="950" y="900" width="120" height="60" as="geometry" />
        </mxCell>
        <mxCell id="hqrAx-IuhgBJA9bFdDGv-68" value="Fin" style="ellipse;whiteSpace=wrap;html=1;" vertex="1" parent="1">
          <mxGeometry x="950" y="1350" width="120" height="80" as="geometry" />
        </mxCell>
        <mxCell id="hqrAx-IuhgBJA9bFdDGv-87" style="edgeStyle=orthogonalEdgeStyle;rounded=0;orthogonalLoop=1;jettySize=auto;html=1;entryX=0.421;entryY=0.142;entryDx=0;entryDy=0;entryPerimeter=0;" edge="1" parent="1" source="hqrAx-IuhgBJA9bFdDGv-34" target="hqrAx-IuhgBJA9bFdDGv-39">
          <mxGeometry relative="1" as="geometry" />
        </mxCell>
        <mxCell id="hqrAx-IuhgBJA9bFdDGv-90" value="" style="endArrow=none;html=1;rounded=0;exitX=0.5;exitY=1;exitDx=0;exitDy=0;" edge="1" parent="1" source="hqrAx-IuhgBJA9bFdDGv-34">
          <mxGeometry width="50" height="50" relative="1" as="geometry">
            <mxPoint x="220" y="1110" as="sourcePoint" />
            <mxPoint x="730" y="920" as="targetPoint" />
          </mxGeometry>
        </mxCell>
        <mxCell id="hqrAx-IuhgBJA9bFdDGv-91" value="" style="endArrow=classic;html=1;rounded=0;entryX=0.5;entryY=0;entryDx=0;entryDy=0;" edge="1" parent="1" target="hqrAx-IuhgBJA9bFdDGv-37">
          <mxGeometry width="50" height="50" relative="1" as="geometry">
            <mxPoint x="60" y="930" as="sourcePoint" />
            <mxPoint x="270" y="1060" as="targetPoint" />
          </mxGeometry>
        </mxCell>
        <mxCell id="hqrAx-IuhgBJA9bFdDGv-93" value="" style="endArrow=classic;html=1;rounded=0;entryX=0.596;entryY=0.042;entryDx=0;entryDy=0;entryPerimeter=0;" edge="1" parent="1" target="hqrAx-IuhgBJA9bFdDGv-40">
          <mxGeometry width="50" height="50" relative="1" as="geometry">
            <mxPoint x="240" y="930" as="sourcePoint" />
            <mxPoint x="80" y="990" as="targetPoint" />
          </mxGeometry>
        </mxCell>
        <mxCell id="hqrAx-IuhgBJA9bFdDGv-94" value="" style="endArrow=classic;html=1;rounded=0;entryX=0.5;entryY=0;entryDx=0;entryDy=0;" edge="1" parent="1" target="hqrAx-IuhgBJA9bFdDGv-41">
          <mxGeometry width="50" height="50" relative="1" as="geometry">
            <mxPoint x="400" y="920" as="sourcePoint" />
            <mxPoint x="252" y="983" as="targetPoint" />
          </mxGeometry>
        </mxCell>
        <mxCell id="hqrAx-IuhgBJA9bFdDGv-95" value="" style="endArrow=classic;html=1;rounded=0;" edge="1" parent="1" target="hqrAx-IuhgBJA9bFdDGv-42">
          <mxGeometry width="50" height="50" relative="1" as="geometry">
            <mxPoint x="550" y="930" as="sourcePoint" />
            <mxPoint x="410" y="980" as="targetPoint" />
          </mxGeometry>
        </mxCell>
        <mxCell id="hqrAx-IuhgBJA9bFdDGv-96" value="" style="endArrow=classic;html=1;rounded=0;entryX=0.588;entryY=0.025;entryDx=0;entryDy=0;entryPerimeter=0;" edge="1" parent="1" target="hqrAx-IuhgBJA9bFdDGv-43">
          <mxGeometry width="50" height="50" relative="1" as="geometry">
            <mxPoint x="730" y="920" as="sourcePoint" />
            <mxPoint x="560" y="980" as="targetPoint" />
          </mxGeometry>
        </mxCell>
        <mxCell id="hqrAx-IuhgBJA9bFdDGv-97" value="" style="endArrow=none;html=1;rounded=0;entryX=0.363;entryY=1.056;entryDx=0;entryDy=0;entryPerimeter=0;" edge="1" parent="1" target="hqrAx-IuhgBJA9bFdDGv-44">
          <mxGeometry width="50" height="50" relative="1" as="geometry">
            <mxPoint x="-126" y="1240" as="sourcePoint" />
            <mxPoint x="340" y="1120" as="targetPoint" />
          </mxGeometry>
        </mxCell>
        <mxCell id="hqrAx-IuhgBJA9bFdDGv-99" value="" style="endArrow=none;html=1;rounded=0;" edge="1" parent="1">
          <mxGeometry width="50" height="50" relative="1" as="geometry">
            <mxPoint x="-130" y="1240" as="sourcePoint" />
            <mxPoint x="760" y="1240" as="targetPoint" />
          </mxGeometry>
        </mxCell>
        <mxCell id="hqrAx-IuhgBJA9bFdDGv-100" value="" style="endArrow=none;html=1;rounded=0;exitX=0.446;exitY=0.944;exitDx=0;exitDy=0;exitPerimeter=0;" edge="1" parent="1" source="hqrAx-IuhgBJA9bFdDGv-45">
          <mxGeometry width="50" height="50" relative="1" as="geometry">
            <mxPoint x="270" y="1170" as="sourcePoint" />
            <mxPoint x="54" y="1240" as="targetPoint" />
          </mxGeometry>
        </mxCell>
        <mxCell id="hqrAx-IuhgBJA9bFdDGv-101" value="" style="endArrow=none;html=1;rounded=0;exitX=0.513;exitY=0.906;exitDx=0;exitDy=0;exitPerimeter=0;" edge="1" parent="1" source="hqrAx-IuhgBJA9bFdDGv-46">
          <mxGeometry width="50" height="50" relative="1" as="geometry">
            <mxPoint x="64" y="1166" as="sourcePoint" />
            <mxPoint x="232" y="1240" as="targetPoint" />
          </mxGeometry>
        </mxCell>
        <mxCell id="hqrAx-IuhgBJA9bFdDGv-102" value="" style="endArrow=none;html=1;rounded=0;exitX=0.537;exitY=0.819;exitDx=0;exitDy=0;exitPerimeter=0;" edge="1" parent="1" source="hqrAx-IuhgBJA9bFdDGv-47">
          <mxGeometry width="50" height="50" relative="1" as="geometry">
            <mxPoint x="242" y="1162" as="sourcePoint" />
            <mxPoint x="404" y="1240" as="targetPoint" />
          </mxGeometry>
        </mxCell>
        <mxCell id="hqrAx-IuhgBJA9bFdDGv-103" value="" style="endArrow=none;html=1;rounded=0;exitX=0.454;exitY=0.981;exitDx=0;exitDy=0;exitPerimeter=0;" edge="1" parent="1" source="hqrAx-IuhgBJA9bFdDGv-48">
          <mxGeometry width="50" height="50" relative="1" as="geometry">
            <mxPoint x="414" y="1156" as="sourcePoint" />
            <mxPoint x="540" y="1240" as="targetPoint" />
          </mxGeometry>
        </mxCell>
        <mxCell id="hqrAx-IuhgBJA9bFdDGv-104" value="" style="endArrow=none;html=1;rounded=0;exitX=0.471;exitY=0.944;exitDx=0;exitDy=0;exitPerimeter=0;" edge="1" parent="1" source="hqrAx-IuhgBJA9bFdDGv-49">
          <mxGeometry width="50" height="50" relative="1" as="geometry">
            <mxPoint x="554" y="1168" as="sourcePoint" />
            <mxPoint x="710" y="1240" as="targetPoint" />
          </mxGeometry>
        </mxCell>
        <mxCell id="hqrAx-IuhgBJA9bFdDGv-105" value="" style="endArrow=none;html=1;rounded=0;" edge="1" parent="1">
          <mxGeometry width="50" height="50" relative="1" as="geometry">
            <mxPoint x="760" y="1470" as="sourcePoint" />
            <mxPoint x="760" y="1240" as="targetPoint" />
          </mxGeometry>
        </mxCell>
        <mxCell id="hqrAx-IuhgBJA9bFdDGv-106" value="" style="endArrow=none;html=1;rounded=0;" edge="1" parent="1">
          <mxGeometry width="50" height="50" relative="1" as="geometry">
            <mxPoint x="760" y="1470" as="sourcePoint" />
            <mxPoint x="1010" y="1470" as="targetPoint" />
          </mxGeometry>
        </mxCell>
        <mxCell id="hqrAx-IuhgBJA9bFdDGv-107" value="" style="endArrow=classic;html=1;rounded=0;entryX=0.451;entryY=1.03;entryDx=0;entryDy=0;entryPerimeter=0;" edge="1" parent="1" target="hqrAx-IuhgBJA9bFdDGv-68">
          <mxGeometry width="50" height="50" relative="1" as="geometry">
            <mxPoint x="1004" y="1470" as="sourcePoint" />
            <mxPoint x="750" y="1420" as="targetPoint" />
          </mxGeometry>
        </mxCell>
        <mxCell id="hqrAx-IuhgBJA9bFdDGv-109" value="" style="endArrow=none;html=1;rounded=0;entryX=0.341;entryY=1.037;entryDx=0;entryDy=0;entryPerimeter=0;exitX=1.032;exitY=0.731;exitDx=0;exitDy=0;exitPerimeter=0;" edge="1" parent="1" source="hqrAx-IuhgBJA9bFdDGv-68" target="hqrAx-IuhgBJA9bFdDGv-8">
          <mxGeometry width="50" height="50" relative="1" as="geometry">
            <mxPoint x="1210" y="1410" as="sourcePoint" />
            <mxPoint x="-50" y="370" as="targetPoint" />
            <Array as="points">
              <mxPoint x="1170" y="1408" />
              <mxPoint x="1220" y="40" />
              <mxPoint x="-360" y="20" />
              <mxPoint x="-360" y="390" />
              <mxPoint y="390" />
            </Array>
          </mxGeometry>
        </mxCell>
        <mxCell id="hqrAx-IuhgBJA9bFdDGv-110" value="" style="endArrow=classic;html=1;rounded=0;exitX=0.066;exitY=1.065;exitDx=0;exitDy=0;exitPerimeter=0;entryX=0.5;entryY=0;entryDx=0;entryDy=0;" edge="1" parent="1" source="hqrAx-IuhgBJA9bFdDGv-6" target="hqrAx-IuhgBJA9bFdDGv-34">
          <mxGeometry width="50" height="50" relative="1" as="geometry">
            <mxPoint x="270" y="690" as="sourcePoint" />
            <mxPoint x="-110" y="823" as="targetPoint" />
            <Array as="points">
              <mxPoint x="108" y="823" />
            </Array>
          </mxGeometry>
        </mxCell>
        <mxCell id="hqrAx-IuhgBJA9bFdDGv-111" value="" style="endArrow=none;html=1;rounded=0;entryX=0.5;entryY=1;entryDx=0;entryDy=0;" edge="1" parent="1" target="hqrAx-IuhgBJA9bFdDGv-11">
          <mxGeometry width="50" height="50" relative="1" as="geometry">
            <mxPoint x="110" y="820" as="sourcePoint" />
            <mxPoint x="290" y="610" as="targetPoint" />
            <Array as="points">
              <mxPoint x="300" y="820" />
            </Array>
          </mxGeometry>
        </mxCell>
        <mxCell id="hqrAx-IuhgBJA9bFdDGv-112" value="" style="endArrow=none;html=1;rounded=0;entryX=0.5;entryY=1;entryDx=0;entryDy=0;" edge="1" parent="1" target="hqrAx-IuhgBJA9bFdDGv-13">
          <mxGeometry width="50" height="50" relative="1" as="geometry">
            <mxPoint x="300" y="820" as="sourcePoint" />
            <mxPoint x="380" y="660" as="targetPoint" />
            <Array as="points">
              <mxPoint x="430" y="820" />
            </Array>
          </mxGeometry>
        </mxCell>
        <mxCell id="hqrAx-IuhgBJA9bFdDGv-113" value="" style="endArrow=none;html=1;rounded=0;entryX=0.5;entryY=1;entryDx=0;entryDy=0;" edge="1" parent="1" target="hqrAx-IuhgBJA9bFdDGv-21">
          <mxGeometry width="50" height="50" relative="1" as="geometry">
            <mxPoint x="430" y="820" as="sourcePoint" />
            <mxPoint x="680" y="760" as="targetPoint" />
            <Array as="points">
              <mxPoint x="580" y="820" />
            </Array>
          </mxGeometry>
        </mxCell>
        <mxCell id="hqrAx-IuhgBJA9bFdDGv-114" value="" style="endArrow=none;html=1;rounded=0;entryX=0.5;entryY=1;entryDx=0;entryDy=0;" edge="1" parent="1" target="hqrAx-IuhgBJA9bFdDGv-18">
          <mxGeometry width="50" height="50" relative="1" as="geometry">
            <mxPoint x="580" y="820" as="sourcePoint" />
            <mxPoint x="680" y="820" as="targetPoint" />
            <Array as="points">
              <mxPoint x="710" y="820" />
            </Array>
          </mxGeometry>
        </mxCell>
        <mxCell id="hqrAx-IuhgBJA9bFdDGv-115" value="" style="endArrow=none;html=1;rounded=0;entryX=0;entryY=0.5;entryDx=0;entryDy=0;" edge="1" parent="1" target="hqrAx-IuhgBJA9bFdDGv-63">
          <mxGeometry width="50" height="50" relative="1" as="geometry">
            <mxPoint x="710" y="820" as="sourcePoint" />
            <mxPoint x="770" y="840" as="targetPoint" />
            <Array as="points">
              <mxPoint x="710" y="850" />
            </Array>
          </mxGeometry>
        </mxCell>
        <mxCell id="hqrAx-IuhgBJA9bFdDGv-122" style="edgeStyle=orthogonalEdgeStyle;rounded=0;orthogonalLoop=1;jettySize=auto;html=1;exitX=0.5;exitY=1;exitDx=0;exitDy=0;entryX=0.579;entryY=-0.013;entryDx=0;entryDy=0;entryPerimeter=0;" edge="1" parent="1" source="hqrAx-IuhgBJA9bFdDGv-43" target="hqrAx-IuhgBJA9bFdDGv-49">
          <mxGeometry relative="1" as="geometry" />
        </mxCell>
      </root>
    </mxGraphModel>
  </diagram>
</mxfile>
